<?xml version="1.0" encoding="utf-8"?>
<!-- Generator: Adobe Illustrator 20.1.0, SVG Export Plug-In . SVG Version: 6.00 Build 0)  -->
<svg version="1.1" id="Layer_1" xmlns="http://www.w3.org/2000/svg" xmlns:xlink="http://www.w3.org/1999/xlink" x="0px" y="0px"
	 viewBox="0 0 197.3 106.9" style="enable-background:new 0 0 197.3 106.9;" xml:space="preserve">
<style type="text/css">
	.st0{fill:#25408F;}
	.st1{fill:#1E398D;}
	.st2{fill:#FFFFFF;}
</style>
<polygon class="st0" points="31.8,89.1 34.1,89.1 39.6,98.4 39.6,98.4 39.6,89.1 41.3,89.1 41.3,101.8 39.5,101.8 33.5,91.6 
	33.5,91.6 33.5,101.8 31.8,101.8 "/>
<g>
	<path class="st0" d="M43.3,97.1c0-3,2-4.9,4.5-4.9c2.6,0,4.5,1.9,4.5,4.9c0,3-2,4.8-4.5,4.8C45.3,101.9,43.3,100.1,43.3,97.1
		 M50.5,97.1c0-2.3-1-3.5-2.6-3.5c-1.6,0-2.6,1.2-2.6,3.5c0,2.3,1,3.4,2.6,3.4C49.4,100.5,50.5,99.3,50.5,97.1"/>
	<path class="st0" d="M53.3,92.3h1.1v-2.6h1.8v2.6h2.1v1.3h-2.1v5.6c0,1,0.4,1.3,1.4,1.3h0.8v1.2c-0.3,0.1-0.9,0.2-1.5,0.2
		c-1.6,0-2.5-0.7-2.5-2.4v-5.8h-1.1V92.3z"/>
	<path class="st0" d="M62,93.5c0.9-0.7,2.2-1.3,3.6-1.3c1.3,0,2.4,0.5,2.4,2.6v7h-1.8v-6.6c0-1.2-0.5-1.5-1.4-1.5
		c-1,0-2,0.5-2.8,0.9v7.1h-1.8V89.1h1c0.7,0,0.8,0.2,0.8,1.2V93.5z"/>
	<path class="st0" d="M70.3,90.2c0-0.6,0.5-1.1,1.1-1.1c0.6,0,1.1,0.5,1.1,1.1c0,0.6-0.5,1-1.1,1C70.8,91.3,70.3,90.8,70.3,90.2
		 M70.4,101.8v-9.5h1c0.7,0,0.8,0.2,0.8,1.4v8H70.4z"/>
	<path class="st0" d="M76.6,93.5c0.9-0.7,2.2-1.3,3.6-1.3c1.3,0,2.4,0.5,2.4,2.6v7h-1.8v-6.6c0-1.2-0.5-1.5-1.4-1.5
		c-1,0-2,0.5-2.8,0.9v7.1h-1.8v-9.5h1.2C76.3,92.3,76.5,92.5,76.6,93.5"/>
	<path class="st0" d="M92.9,101.4c0,2.2-1.7,3.4-4.4,3.4c-1.6,0-2.8-0.3-3.6-0.8v-1.4h0.6c0.6,0.5,1.6,0.8,2.8,0.8
		c1.7,0,2.8-0.6,2.8-2.1v-1c-0.7,0.7-1.7,1.2-2.9,1.2c-1.9,0-3.7-1.3-3.7-4.5c0-3.5,2-4.9,4-4.9c1.2,0,2.1,0.4,2.7,1
		c0.1-0.5,0.4-0.9,0.9-0.9h0.8V101.4z M91,99v-4.5c-0.6-0.5-1.2-0.8-2.2-0.8c-1.2,0-2.6,0.7-2.6,3.3c0,2.5,1,3.3,2.3,3.3
		C89.6,100.2,90.4,99.6,91,99"/>
	<path class="st0" d="M99.4,89.1h3.9c2.6,0,4.1,0.9,4.1,3.3c0,1.6-0.9,2.4-2.2,2.7v0.1c1.5,0.3,2.7,1.1,2.7,3.1
		c0,2.4-1.7,3.6-4.5,3.6h-4.1V89.1z M103.2,94.4c1.4,0,2.3-0.6,2.3-2c0-1.4-0.9-1.9-2.2-1.9h-1.9v3.8H103.2z M103.4,100.3
		c1.6,0,2.5-0.7,2.5-2.2c0-1.5-1-2.2-2.6-2.2h-2v4.4H103.4z"/>
	<path class="st0" d="M115.8,99.5v-7.2h1.8v9.5h-1.2c-0.4,0-0.6-0.1-0.7-1.1c-0.9,0.7-2.2,1.2-3.4,1.2c-1.5,0-2.6-0.6-2.6-2.5v-7
		h1.8v6.6c0,1.2,0.6,1.5,1.5,1.5C114.1,100.4,115,100,115.8,99.5"/>
	<path class="st0" d="M119.3,92.3h1.1v-2.6h1.8v2.6h2.1v1.3h-2.1v5.6c0,1,0.4,1.3,1.4,1.3h0.8v1.2c-0.3,0.1-0.9,0.2-1.5,0.2
		c-1.6,0-2.5-0.7-2.5-2.4v-5.8h-1.1V92.3z"/>
	<path class="st0" d="M130.2,89.1h3.7c2.9,0,4.7,1.1,4.7,3.8c0,2.7-1.7,3.9-4.7,3.9h-1.7v4.9h-2V89.1z M132.2,95.4h1.7
		c1.9,0,2.7-0.8,2.7-2.5c0-1.7-0.8-2.4-2.7-2.4h-1.7V95.4z"/>
	<path class="st0" d="M146.4,99.5v-7.2h1.8v9.5H147c-0.4,0-0.6-0.1-0.7-1.1c-0.9,0.7-2.2,1.2-3.4,1.2c-1.5,0-2.6-0.6-2.6-2.5v-7h1.8
		v6.6c0,1.2,0.6,1.5,1.5,1.5C144.6,100.4,145.6,100,146.4,99.5"/>
	<path class="st0" d="M152.6,94.9v6.9h-1.8v-9.5h1.2c0.5,0,0.7,0.2,0.7,1.3c0.6-0.7,1.5-1.4,2.7-1.4c0.2,0,0.4,0,0.5,0.1v1.5
		c0,0-0.3,0-0.4,0C154.1,93.8,153.2,94.3,152.6,94.9"/>
	<path class="st0" d="M158.4,97.4c0.1,2.2,1.1,3.1,2.9,3.1c1.2,0,2-0.4,2.6-0.9h0.6v1.3c-0.7,0.5-1.7,1-3.5,1
		c-2.9,0-4.5-1.8-4.5-4.8c0-3,1.9-4.9,4.3-4.9c2.5,0,4,1.5,4,4.6c0,0.3,0,0.6,0,0.7H158.4z M158.5,96.2h4.5c0-2-0.8-2.7-2.1-2.7
		C159.6,93.4,158.7,94.2,158.5,96.2"/>
	<path class="st1" d="M10.1,4.5c-0.9,0-8.8,0.3-8.8,8.8v55c0,0.9,0.3,8.8,8.8,8.8h176.4c0.9,0,8.8-0.3,8.8-8.8v-55
		c0-0.9-0.3-8.8-8.8-8.8H10.1z"/>
	<path class="st2" d="M29.8,16.8c1.8,0.1,3.6,0.2,5.6,0.2c1.9,0,3.8-0.1,5.7-0.2l-1.4,3.7c2.9-2.5,7.5-4.1,13.2-4.1
		c12.2,0,14.8,4.9,12.7,10.3c-2.9,7.6-12.5,11-21.2,11c-5.7,0-8.3-1.4-9.7-3l-5.2,13.4c-1.9-0.1-3.8-0.2-5.8-0.2c-2,0-4,0.1-5.9,0.2
		L29.8,16.8z M52.8,27.1c1.9-4.8,1.3-8-4.3-8c-7.4,0-10.4,5.5-11.4,8.2c-1,2.6-2.4,7.6,4.8,7.6C47.4,34.6,51,31.6,52.8,27.1"/>
	<path class="st2" d="M103.2,37.3c-1.8-0.1-3.6-0.2-5.5-0.2c-1.9,0-3.9,0.1-5.8,0.2l1.2-3.1c-4.8,2.1-8.3,3.5-14.2,3.5
		c-4.3,0-8.5-0.8-10.3-2.6c-1.9-1.8-0.5-4.4,0.3-6.6l4.6-11.7c1.9,0.1,3.8,0.2,5.8,0.2c2,0,3.9-0.1,5.9-0.2l-4.5,11.7
		c-0.4,1-0.9,2.6-0.4,3.5c0.6,1.3,2.2,2.2,5.2,2.2c7.4,0,8.8-3.7,9.8-6.4l4.3-11.1c1.9,0.1,3.8,0.2,5.8,0.2c2,0,3.9-0.1,5.9-0.2
		L103.2,37.3z"/>
	<path class="st2" d="M119,16.8c1.9,0.1,3.8,0.2,5.8,0.2c2,0,3.9-0.1,5.9-0.2l-2,5.2c3-3.1,7.7-5.6,16-5.6c-1.2,2-2.2,3.9-2.7,5.8
		l-0.9,0.3c-0.9-0.4-2.8-0.6-4.1-0.6c-3.7,0-7.2,1-8.9,2.8c-1.2,1.2-1.9,3.6-2.4,4.9l-3,7.7c-1.9-0.1-3.8-0.2-5.8-0.2
		c-1.9,0-3.9,0.1-5.9,0.2L119,16.8z"/>
	<path class="st2" d="M154.8,27.1c-1.9,4.4-0.3,7.9,8.7,7.9c3.5,0,7.6-0.8,10.7-1.9l0.9,0.4l-2.8,2.4c-3.8,1.2-8.7,1.9-12.9,1.9
		c-14.1,0-19.6-4.2-16.9-11.1c2.3-5.9,11.1-10.2,23.4-10.2c13.3,0,16.5,4.6,13.2,10.7H154.8z M168.1,25c0.9-2.2,2.1-6.7-3-6.7
		c-6.2,0-8.5,4.5-9.6,6.7H168.1z"/>
	<path class="st2" d="M18.4,58.8c-0.6,1.5-0.1,2.8,2.6,2.8c1,0,2.3-0.3,3.2-0.7l0.3,0.1l-0.8,0.8c-1.2,0.4-2.6,0.7-3.9,0.7
		c-4.2,0-5.9-1.5-5.1-3.9c0.7-2.1,3.3-3.6,7-3.6c4,0,5,1.6,4,3.8H18.4z M22.4,58c0.3-0.8,0.6-2.4-0.9-2.4c-1.9,0-2.6,1.6-2.9,2.4
		H22.4z"/>
	<path class="st2" d="M29.1,55.1c0.5,0,1.1,0.1,1.7,0.1c0.6,0,1.1,0,1.7-0.1l-0.4,1.1c1.2-0.7,2.8-1.2,4.3-1.2c3.2,0,3.6,1.2,3,3
		L38,62.4c-0.6,0-1.2-0.1-1.7-0.1c-0.6,0-1.2,0-1.8,0.1l1.2-3.7c0.5-1.4,0.5-2.4-1.3-2.4c-2.2,0-2.8,1.8-3.1,2.7l-1.1,3.4
		c-0.6,0-1.1-0.1-1.7-0.1c-0.6,0-1.2,0-1.8,0.1L29.1,55.1z"/>
	<path class="st2" d="M52.4,57.2h-0.6c0.1-0.8-0.6-1.6-2.1-1.6c-2.4,0-3.7,1.8-4.1,2.9c-0.6,1.8,0.1,3,2.9,3c0.9,0,2.1-0.3,2.9-0.7
		l0.4,0.2L50.9,62c-0.8,0.4-2.7,0.6-3.6,0.6c-3.9,0-6.2-1.3-5.5-3.6c0.8-2.4,4-3.9,8-3.9c1.5,0,3.1,0.2,4.2,0.7L52.4,57.2z"/>
	<path class="st2" d="M63.7,61.1c-0.2,0.6,0,0.7,1.1,0.7l-0.1,0.3c-0.7,0.2-1.7,0.4-2.4,0.4c-1.2,0-2-0.4-2.2-1.1
		c-0.9,0.7-2.3,1.1-3.6,1.1c-2.1,0-3.4-0.7-3-2c0.5-1.4,2.1-1.8,5.4-2.3c0.7-0.1,1.4-0.2,2-0.4c0.4-0.2,0.5-0.4,0.6-0.6
		c0.2-0.7-0.8-1.3-2-1.3c-1.6,0-3.2,0.7-3.4,0.9h-0.2l0-0.9c1.4-0.7,3.4-1,5-1c2.1,0,4.7,0.5,4.2,2L63.7,61.1z M61,58.5
		c-0.7,0.2-1.9,0.3-2.7,0.6c-0.8,0.3-1.1,0.8-1.2,1.2c-0.2,0.6-0.1,1.2,1,1.2c1.6,0,2.2-0.9,2.5-1.6L61,58.5z"/>
	<path class="st2" d="M68.7,55.1c0.5,0,1.1,0.1,1.7,0.1c0.6,0,1.1,0,1.7-0.1l-0.4,1.3c0.9-0.9,2.3-1.5,4-1.5c3.7,0,4.4,1.7,3.8,3.6
		c-0.9,2.7-3.8,3.9-6.4,3.9c-1.7,0-2.5-0.5-2.9-1.1l-1.6,4.7c-0.6,0-1.1-0.1-1.7-0.1c-0.6,0-1.2,0-1.8,0.1L68.7,55.1z M75.7,58.8
		c0.6-1.7,0.4-2.8-1.3-2.8c-2.2,0-3.1,2-3.4,2.9c-0.3,0.9-0.7,2.7,1.4,2.7C74,61.4,75.1,60.4,75.7,58.8"/>
	<path class="st2" d="M81.5,60.5c0.2,0.7,1.1,1.3,2.5,1.3c0.9,0,2.1-0.4,2.3-0.9c0.5-1.4-5.6-0.9-4.7-3.5c0.5-1.5,2.8-2.4,5.2-2.4
		c1.3,0,2.6,0.2,3.5,0.7c-0.4,0.4-0.7,0.9-1,1.3h-0.7c0-0.6-0.9-1.3-2-1.3c-0.9,0-2,0.3-2.2,0.9c-0.5,1.5,5.7,0.7,4.8,3.5
		c-0.5,1.4-2.6,2.4-5.7,2.4c-1.2,0-2.4-0.2-3.3-0.6c0.3-0.5,0.6-0.9,0.9-1.4H81.5z"/>
	<path class="st2" d="M101.6,62.4c-0.6,0-1.1-0.1-1.7-0.1c-0.6,0-1.2,0-1.7,0.1l0.4-1.1c-1.4,0.7-2.5,1.2-4.3,1.2
		c-1.3,0-2.6-0.3-3.1-0.9c-0.6-0.6-0.1-1.6,0.1-2.3l1.4-4.2c0.6,0,1.1,0.1,1.7,0.1s1.2,0,1.8-0.1l-1.4,4.1c-0.1,0.3-0.3,0.9-0.1,1.2
		c0.2,0.5,0.7,0.8,1.6,0.8c2.2,0,2.6-1.3,3-2.2l1.3-3.9c0.6,0,1.2,0.1,1.7,0.1c0.6,0,1.2,0,1.8-0.1L101.6,62.4z"/>
	<path class="st2" d="M108.4,62.4c-0.6,0-1.1-0.1-1.7-0.1c-0.6,0-1.2,0-1.8,0.1l3.8-11.4c0.6,0,1.1,0.1,1.7,0.1c0.6,0,1.2,0,1.8-0.1
		L108.4,62.4z"/>
	<path class="st2" d="M121.7,61.1c-0.2,0.6,0,0.7,1.1,0.7l-0.1,0.3c-0.7,0.2-1.7,0.4-2.4,0.4c-1.2,0-2-0.4-2.2-1.1
		c-0.9,0.7-2.3,1.1-3.6,1.1c-2.1,0-3.4-0.7-3-2c0.5-1.4,2.1-1.8,5.4-2.3c0.7-0.1,1.4-0.2,2-0.4c0.4-0.2,0.5-0.4,0.6-0.6
		c0.2-0.7-0.8-1.3-2-1.3c-1.6,0-3.2,0.7-3.4,0.9h-0.2l0-0.9c1.4-0.7,3.4-1,5-1c2.1,0,4.7,0.5,4.2,2L121.7,61.1z M119,58.5
		c-0.7,0.2-1.9,0.3-2.7,0.6c-0.8,0.3-1.1,0.8-1.2,1.2c-0.2,0.6-0.1,1.2,1,1.2c1.6,0,2.2-0.9,2.5-1.6L119,58.5z"/>
	<path class="st2" d="M129.3,60.3c-0.3,1-0.4,1.6,2,1.2l-0.2,0.6c-1,0.2-2,0.3-2.8,0.3c-2.6,0-2.9-1-2.4-2.4l1.3-4h-1.7
		c0.2-0.3,0.3-0.6,0.3-1h1.7l0.6-1.7c1.2-0.3,2.5-0.6,3.8-0.9l-0.9,2.6h2.2c-0.2,0.3-0.3,0.6-0.3,1h-2.2L129.3,60.3z"/>
	<path class="st2" d="M135.6,55.1c0.6,0,1.1,0.1,1.7,0.1c0.6,0,1.2,0,1.8-0.1l-2.4,7.3c-0.6,0-1.1-0.1-1.7-0.1c-0.6,0-1.2,0-1.8,0.1
		L135.6,55.1z M138.6,51.2c1.1,0,1.9,0.5,1.6,1.2c-0.2,0.6-1.3,1.2-2.4,1.2c-1.1,0-1.8-0.6-1.6-1.2
		C136.5,51.8,137.5,51.2,138.6,51.2"/>
	<path class="st2" d="M140.5,58.9c0.8-2.4,3.6-3.9,7.5-3.9c3.9,0,5.8,1.4,5.1,3.6c-0.7,2.3-3.6,3.9-7.6,3.9
		C141.7,62.5,139.7,61.1,140.5,58.9 M144.3,58.9c-0.3,1-0.8,3,1.4,3c2,0,3.1-1.9,3.7-3.5c0.5-1.5,0.2-2.7-1.5-2.7
		C145.9,55.7,144.8,57.1,144.3,58.9"/>
	<path class="st2" d="M156.4,55.1c0.5,0,1.1,0.1,1.7,0.1c0.6,0,1.1,0,1.7-0.1l-0.4,1.1c1.3-0.7,2.8-1.2,4.3-1.2c3.2,0,3.6,1.2,3,3
		l-1.5,4.4c-0.6,0-1.1-0.1-1.7-0.1c-0.6,0-1.2,0-1.8,0.1l1.2-3.7c0.5-1.4,0.5-2.4-1.3-2.4c-2.2,0-2.8,1.8-3.1,2.7l-1.1,3.4
		c-0.6,0-1.1-0.1-1.7-0.1c-0.6,0-1.2,0-1.8,0.1L156.4,55.1z"/>
	<path class="st2" d="M169.2,60.5c0.2,0.7,1.1,1.3,2.5,1.3c0.9,0,2.1-0.4,2.3-0.9c0.5-1.4-5.6-0.9-4.7-3.5c0.5-1.5,2.9-2.4,5.2-2.4
		c1.3,0,2.6,0.2,3.5,0.7c-0.4,0.4-0.7,0.9-1,1.3h-0.7c0-0.6-0.9-1.3-2-1.3c-0.9,0-2,0.3-2.2,0.9c-0.5,1.5,5.7,0.7,4.8,3.5
		c-0.5,1.4-2.6,2.4-5.7,2.4c-1.2,0-2.4-0.2-3.3-0.6c0.3-0.5,0.6-0.9,0.9-1.4H169.2z"/>
	<path class="st2" d="M178.7,49.1c-0.1,0.3-0.3,0.6-0.6,0.9c-0.3,0.3-0.6,0.5-0.9,0.6c-0.3,0.1-0.7,0.2-1.1,0.2
		c-0.4,0-0.7-0.1-1.1-0.2c-0.3-0.2-0.7-0.4-0.9-0.6c-0.3-0.3-0.5-0.6-0.6-0.9c-0.1-0.3-0.2-0.7-0.2-1.1c0-0.4,0.1-0.7,0.2-1.1
		c0.1-0.4,0.4-0.7,0.6-0.9c0.3-0.3,0.6-0.5,0.9-0.6c0.3-0.1,0.7-0.2,1.1-0.2c0.4,0,0.7,0.1,1.1,0.2c0.3,0.1,0.7,0.3,0.9,0.6
		c0.3,0.3,0.5,0.6,0.6,0.9c0.1,0.3,0.2,0.7,0.2,1.1C178.9,48.4,178.8,48.8,178.7,49.1 M175.4,46.5h0.6c0.3,0,0.6,0,0.7,0.2
		c0.2,0.1,0.2,0.3,0.2,0.5c0,0.2-0.1,0.4-0.2,0.4c-0.1,0.1-0.4,0.1-0.7,0.1h-0.6V46.5z M177.5,47.8c0.2-0.2,0.2-0.4,0.2-0.7
		c0-0.3-0.1-0.6-0.4-0.8c-0.3-0.2-0.7-0.3-1.2-0.3h-1.4v3.7h0.7v-1.6h0.7l0.8,1.6h0.8l-0.8-1.7C177.1,48,177.3,47.9,177.5,47.8
		 M174.6,45.1c-0.4,0.2-0.8,0.5-1.1,0.9c-0.2,0.3-0.4,0.6-0.5,1c-0.1,0.3-0.2,0.7-0.2,1.1c0,0.4,0.1,0.8,0.2,1.2
		c0.2,0.4,0.4,0.7,0.7,1c0.3,0.3,0.7,0.6,1.1,0.7c0.4,0.2,0.8,0.3,1.2,0.3c0.4,0,0.8-0.1,1.2-0.2c0.4-0.2,0.8-0.4,1.1-0.7
		c0.3-0.3,0.5-0.6,0.7-1c0.2-0.4,0.2-0.8,0.2-1.3c0-0.5-0.1-1-0.3-1.4c-0.2-0.5-0.5-0.8-0.9-1.1c-0.3-0.2-0.6-0.4-0.9-0.5
		c-0.3-0.1-0.7-0.2-1.1-0.2C175.5,44.7,175.1,44.8,174.6,45.1"/>
</g>
</svg>
